<?xml version="1.0" encoding="UTF-8"?>
<svg height="128px" viewBox="0 0 128 128" width="128px" xmlns="http://www.w3.org/2000/svg">
    <path d="m 19.277344 20.425781 c -3.230469 0 -5.828125 2.597657 -5.828125 5.828125 v 71.261719 c 0 3.226563 2.597656 5.828125 5.828125 5.828125 h 69.007812 c 7.410156 4.761719 20.074219 12.65625 22.601563 12.65625 c 3.601562 0 3.667969 -3.667969 3.667969 -3.667969 v -86.078125 c 0 -3.230468 -2.601563 -5.828125 -5.832032 -5.828125 z m 0 0" fill="#613583"/>
    <path d="m 19.277344 18.296875 c -3.230469 0 -5.828125 2.601563 -5.828125 5.828125 v 69.265625 c 0 3.230469 2.648437 5.839844 5.878906 5.839844 h 69.003906 c 7.414063 4.757812 20.078125 12.65625 22.601563 12.65625 c 3.605468 0 3.617187 -3.671875 3.617187 -3.671875 v -84.089844 c 0 -3.226562 -2.597656 -5.828125 -5.828125 -5.828125 z m 0 0" fill="#9141ac"/>
    <g fill="#f6f5f4">
        <path d="m 40.824219 66.085938 c 3.441406 0 5.796875 -2.445313 5.796875 -5.792969 c 0 -3.351563 -2.355469 -5.792969 -5.796875 -5.792969 c -3.4375 0 -5.792969 2.441406 -5.792969 5.792969 c 0 3.347656 2.355469 5.792969 5.792969 5.792969 z m 0 0"/>
        <path d="m 64 66.085938 c 3.441406 0 5.792969 -2.445313 5.792969 -5.792969 c 0 -3.351563 -2.351563 -5.792969 -5.792969 -5.792969 s -5.792969 2.441406 -5.792969 5.792969 c 0 3.347656 2.351563 5.792969 5.792969 5.792969 z m 0 0"/>
        <path d="m 87.171875 66.085938 c 3.441406 0 5.796875 -2.445313 5.796875 -5.792969 c 0 -3.351563 -2.355469 -5.792969 -5.796875 -5.792969 c -3.4375 0 -5.792969 2.441406 -5.792969 5.792969 c 0 3.347656 2.355469 5.792969 5.792969 5.792969 z m 0 0"/>
    </g>
</svg>
