<?xml version="1.0" encoding="UTF-8"?>
<svg height="128px" viewBox="0 0 128 128" width="128px" xmlns="http://www.w3.org/2000/svg" xmlns:xlink="http://www.w3.org/1999/xlink">
    <clipPath id="a">
        <rect height="128" width="128"/>
    </clipPath>
    <clipPath id="b">
        <rect height="128" width="128"/>
    </clipPath>
    <filter id="c" height="100%" width="100%" x="0%" y="0%">
        <feColorMatrix in="SourceGraphic" type="matrix" values="0 0 0 0 1 0 0 0 0 1 0 0 0 0 1 0 0 0 1 0"/>
    </filter>
    <mask id="d">
        <g clip-path="url(#b)" filter="url(#c)">
            <g clip-path="url(#a)">
                <path d="m 19.277344 20.425781 c -3.230469 0 -5.828125 2.597657 -5.828125 5.828125 v 71.261719 c 0 3.226563 2.597656 5.828125 5.828125 5.828125 h 69.007812 c 7.410156 4.761719 20.074219 12.65625 22.601563 12.65625 c 3.601562 0 3.667969 -3.667969 3.667969 -3.667969 v -86.078125 c 0 -3.230468 -2.601563 -5.828125 -5.832032 -5.828125 z m 0 0" fill="#613583"/>
                <path d="m 19.277344 18.296875 c -3.230469 0 -5.828125 2.601563 -5.828125 5.828125 v 69.265625 c 0 3.230469 2.648437 5.839844 5.878906 5.839844 h 69.003906 c 7.414063 4.757812 20.078125 12.65625 22.601563 12.65625 c 3.605468 0 3.617187 -3.671875 3.617187 -3.671875 v -84.089844 c 0 -3.226562 -2.597656 -5.828125 -5.828125 -5.828125 z m 0 0" fill="#9141ac"/>
                <path d="m 40.824219 66.085938 c 3.441406 0 5.796875 -2.445313 5.796875 -5.792969 c 0 -3.351563 -2.355469 -5.792969 -5.796875 -5.792969 c -3.4375 0 -5.792969 2.441406 -5.792969 5.792969 c 0 3.347656 2.355469 5.792969 5.792969 5.792969 z m 0 0" fill="#f6f5f4"/>
                <path d="m 64 66.085938 c 3.441406 0 5.792969 -2.445313 5.792969 -5.792969 c 0 -3.351563 -2.351563 -5.792969 -5.792969 -5.792969 s -5.792969 2.441406 -5.792969 5.792969 c 0 3.347656 2.351563 5.792969 5.792969 5.792969 z m 0 0" fill="#f6f5f4"/>
                <path d="m 87.171875 66.085938 c 3.441406 0 5.796875 -2.445313 5.796875 -5.792969 c 0 -3.351563 -2.355469 -5.792969 -5.796875 -5.792969 c -3.4375 0 -5.792969 2.441406 -5.792969 5.792969 c 0 3.347656 2.355469 5.792969 5.792969 5.792969 z m 0 0" fill="#f6f5f4"/>
            </g>
        </g>
    </mask>
    <mask id="e">
        <g filter="url(#c)">
            <rect fill-opacity="0.8" height="128" width="128"/>
        </g>
    </mask>
    <linearGradient id="f" gradientTransform="matrix(0 0.37 -0.98462 0 295.38501 -30.360001)" gradientUnits="userSpaceOnUse" x1="300" x2="428" y1="235" y2="235">
        <stop offset="0" stop-color="#f9f06b"/>
        <stop offset="1" stop-color="#f5c211"/>
    </linearGradient>
    <clipPath id="g">
        <rect height="128" width="128"/>
    </clipPath>
    <clipPath id="h">
        <rect height="128" width="128"/>
    </clipPath>
    <path d="m 19.277344 20.425781 c -3.230469 0 -5.828125 2.597657 -5.828125 5.828125 v 71.261719 c 0 3.226563 2.597656 5.828125 5.828125 5.828125 h 69.007812 c 7.410156 4.761719 20.074219 12.65625 22.601563 12.65625 c 3.601562 0 3.667969 -3.667969 3.667969 -3.667969 v -86.078125 c 0 -3.230468 -2.601563 -5.828125 -5.832032 -5.828125 z m 0 0" fill="#613583"/>
    <path d="m 19.277344 18.296875 c -3.230469 0 -5.828125 2.601563 -5.828125 5.828125 v 69.265625 c 0 3.230469 2.648437 5.839844 5.878906 5.839844 h 69.003906 c 7.414063 4.757812 20.078125 12.65625 22.601563 12.65625 c 3.605468 0 3.617187 -3.671875 3.617187 -3.671875 v -84.089844 c 0 -3.226562 -2.597656 -5.828125 -5.828125 -5.828125 z m 0 0" fill="#9141ac"/>
    <g fill="#f6f5f4">
        <path d="m 40.824219 66.085938 c 3.441406 0 5.796875 -2.445313 5.796875 -5.792969 c 0 -3.351563 -2.355469 -5.792969 -5.796875 -5.792969 c -3.4375 0 -5.792969 2.441406 -5.792969 5.792969 c 0 3.347656 2.355469 5.792969 5.792969 5.792969 z m 0 0"/>
        <path d="m 64 66.085938 c 3.441406 0 5.792969 -2.445313 5.792969 -5.792969 c 0 -3.351563 -2.351563 -5.792969 -5.792969 -5.792969 s -5.792969 2.441406 -5.792969 5.792969 c 0 3.347656 2.351563 5.792969 5.792969 5.792969 z m 0 0"/>
        <path d="m 87.171875 66.085938 c 3.441406 0 5.796875 -2.445313 5.796875 -5.792969 c 0 -3.351563 -2.355469 -5.792969 -5.796875 -5.792969 c -3.4375 0 -5.792969 2.441406 -5.792969 5.792969 c 0 3.347656 2.355469 5.792969 5.792969 5.792969 z m 0 0"/>
    </g>
    <g clip-path="url(#h)" mask="url(#d)">
        <g clip-path="url(#g)" mask="url(#e)">
            <path d="m 128 80.640625 v 47.359375 h -128 v -47.359375 z m 0 0" fill="url(#f)"/>
            <path d="m 13.308594 80.640625 l 47.355468 47.359375 h 21.214844 l -47.359375 -47.359375 z m 42.421875 0 l 47.363281 47.359375 h 21.214844 l -47.363282 -47.359375 z m 42.429687 0 l 29.839844 29.839844 v -21.210938 l -8.628906 -8.628906 z m -98.160156 7.90625 v 21.214844 l 18.238281 18.238281 h 21.214844 z m 0 0"/>
        </g>
    </g>
</svg>
